<svg width="80" height="80" viewBox="0 0 80 80" fill="none" xmlns="http://www.w3.org/2000/svg">
<g filter="url(#filter0_dddd_107_6844)">
<rect x="20" y="20" width="40" height="40" rx="8" fill="#EBEFF3" shape-rendering="crispEdges"/>
<path fill-rule="evenodd" clip-rule="evenodd" d="M29.5 34.1714C29.5 30.763 32.1443 28 35.4062 28H48.5312C49.6186 28 50.5 28.921 50.5 30.0571V50.6286C50.5 51.386 49.9124 52 49.1875 52H34.0938C31.7795 52 29.865 50.2119 29.5465 47.8857H29.5V34.1714ZM48.5312 44.4571H34.0937C32.644 44.4571 31.4688 45.6852 31.4688 47.2C31.4688 48.7148 32.644 49.9429 34.0938 49.9429H48.5312V44.4571ZM35.0781 34.1714C35.0781 33.6034 35.5188 33.1429 36.0625 33.1429H45.25C45.7937 33.1429 46.2344 33.6034 46.2344 34.1714C46.2344 34.7395 45.7937 35.2 45.25 35.2H36.0625C35.5188 35.2 35.0781 34.7395 35.0781 34.1714ZM36.0625 37.2571C35.5188 37.2571 35.0781 37.7177 35.0781 38.2857C35.0781 38.8538 35.5188 39.3143 36.0625 39.3143H42.625C43.1687 39.3143 43.6094 38.8538 43.6094 38.2857C43.6094 37.7177 43.1687 37.2571 42.625 37.2571H36.0625Z" fill="url(#paint0_linear_107_6844)"/>
</g>
<defs>
<filter id="filter0_dddd_107_6844" x="0" y="0" width="80" height="80" filterUnits="userSpaceOnUse" color-interpolation-filters="sRGB">
<feFlood flood-opacity="0" result="BackgroundImageFix"/>
<feColorMatrix in="SourceAlpha" type="matrix" values="0 0 0 0 0 0 0 0 0 0 0 0 0 0 0 0 0 0 127 0" result="hardAlpha"/>
<feOffset dx="4" dy="4"/>
<feGaussianBlur stdDeviation="4"/>
<feComposite in2="hardAlpha" operator="out"/>
<feColorMatrix type="matrix" values="0 0 0 0 0.741176 0 0 0 0 0.761569 0 0 0 0 0.780392 0 0 0 0.75 0"/>
<feBlend mode="normal" in2="BackgroundImageFix" result="effect1_dropShadow_107_6844"/>
<feColorMatrix in="SourceAlpha" type="matrix" values="0 0 0 0 0 0 0 0 0 0 0 0 0 0 0 0 0 0 127 0" result="hardAlpha"/>
<feOffset dx="8" dy="8"/>
<feGaussianBlur stdDeviation="6"/>
<feComposite in2="hardAlpha" operator="out"/>
<feColorMatrix type="matrix" values="0 0 0 0 0.741176 0 0 0 0 0.760784 0 0 0 0 0.780392 0 0 0 0.25 0"/>
<feBlend mode="normal" in2="effect1_dropShadow_107_6844" result="effect2_dropShadow_107_6844"/>
<feColorMatrix in="SourceAlpha" type="matrix" values="0 0 0 0 0 0 0 0 0 0 0 0 0 0 0 0 0 0 127 0" result="hardAlpha"/>
<feOffset dx="-4" dy="-4"/>
<feGaussianBlur stdDeviation="4"/>
<feComposite in2="hardAlpha" operator="out"/>
<feColorMatrix type="matrix" values="0 0 0 0 1 0 0 0 0 1 0 0 0 0 1 0 0 0 0.75 0"/>
<feBlend mode="normal" in2="effect2_dropShadow_107_6844" result="effect3_dropShadow_107_6844"/>
<feColorMatrix in="SourceAlpha" type="matrix" values="0 0 0 0 0 0 0 0 0 0 0 0 0 0 0 0 0 0 127 0" result="hardAlpha"/>
<feOffset dx="-8" dy="-8"/>
<feGaussianBlur stdDeviation="6"/>
<feComposite in2="hardAlpha" operator="out"/>
<feColorMatrix type="matrix" values="0 0 0 0 1 0 0 0 0 1 0 0 0 0 1 0 0 0 0.25 0"/>
<feBlend mode="normal" in2="effect3_dropShadow_107_6844" result="effect4_dropShadow_107_6844"/>
<feBlend mode="normal" in="SourceGraphic" in2="effect4_dropShadow_107_6844" result="shape"/>
</filter>
<linearGradient id="paint0_linear_107_6844" x1="29.5" y1="40.1101" x2="51.4844" y2="40.1101" gradientUnits="userSpaceOnUse">
<stop stop-color="#4ADEE8"/>
<stop offset="0.520833" stop-color="#38D2DC" stop-opacity="0.92"/>
<stop offset="1" stop-color="#4ADEE8"/>
</linearGradient>
</defs>
</svg>
