<svg width="80" height="80" viewBox="0 0 80 80" fill="none" xmlns="http://www.w3.org/2000/svg">
<g filter="url(#filter0_dddd_107_6848)">
<rect x="20" y="20" width="40" height="40" rx="8" fill="#EBEFF3" shape-rendering="crispEdges"/>
<path fill-rule="evenodd" clip-rule="evenodd" d="M33.2089 28.3747C37.6859 27.8751 42.3141 27.8751 46.7911 28.3747C49.2895 28.6534 51.3051 30.6186 51.5985 33.1227C52.1338 37.692 52.1338 42.308 51.5985 46.8773C51.3051 49.3814 49.2895 51.3466 46.7911 51.6253C42.3141 52.1249 37.6859 52.1249 33.2089 51.6253C30.7105 51.3466 28.6949 49.3814 28.4015 46.8773C27.8662 42.308 27.8662 37.692 28.4015 33.1227C28.6949 30.6186 30.7105 28.6534 33.2089 28.3747ZM34.8502 34.8588C35.2775 34.4322 35.9702 34.4322 36.3974 34.8588L40 38.4554L43.6026 34.8588C44.0299 34.4322 44.7226 34.4322 45.1499 34.8588C45.5771 35.2853 45.5771 35.9769 45.1499 36.4034L41.5473 40L45.1498 43.5966C45.5771 44.0231 45.5771 44.7147 45.1498 45.1412C44.7226 45.5678 44.0299 45.5678 43.6026 45.1412L40 41.5446L36.3974 45.1412C35.9702 45.5678 35.2775 45.5678 34.8502 45.1412C34.423 44.7147 34.423 44.0231 34.8502 43.5966L38.4528 40L34.8502 36.4034C34.423 35.9769 34.423 35.2853 34.8502 34.8588Z" fill="url(#paint0_linear_107_6848)"/>
</g>
<defs>
<filter id="filter0_dddd_107_6848" x="0" y="0" width="80" height="80" filterUnits="userSpaceOnUse" color-interpolation-filters="sRGB">
<feFlood flood-opacity="0" result="BackgroundImageFix"/>
<feColorMatrix in="SourceAlpha" type="matrix" values="0 0 0 0 0 0 0 0 0 0 0 0 0 0 0 0 0 0 127 0" result="hardAlpha"/>
<feOffset dx="4" dy="4"/>
<feGaussianBlur stdDeviation="4"/>
<feComposite in2="hardAlpha" operator="out"/>
<feColorMatrix type="matrix" values="0 0 0 0 0.741176 0 0 0 0 0.761569 0 0 0 0 0.780392 0 0 0 0.75 0"/>
<feBlend mode="normal" in2="BackgroundImageFix" result="effect1_dropShadow_107_6848"/>
<feColorMatrix in="SourceAlpha" type="matrix" values="0 0 0 0 0 0 0 0 0 0 0 0 0 0 0 0 0 0 127 0" result="hardAlpha"/>
<feOffset dx="8" dy="8"/>
<feGaussianBlur stdDeviation="6"/>
<feComposite in2="hardAlpha" operator="out"/>
<feColorMatrix type="matrix" values="0 0 0 0 0.741176 0 0 0 0 0.760784 0 0 0 0 0.780392 0 0 0 0.25 0"/>
<feBlend mode="normal" in2="effect1_dropShadow_107_6848" result="effect2_dropShadow_107_6848"/>
<feColorMatrix in="SourceAlpha" type="matrix" values="0 0 0 0 0 0 0 0 0 0 0 0 0 0 0 0 0 0 127 0" result="hardAlpha"/>
<feOffset dx="-4" dy="-4"/>
<feGaussianBlur stdDeviation="4"/>
<feComposite in2="hardAlpha" operator="out"/>
<feColorMatrix type="matrix" values="0 0 0 0 1 0 0 0 0 1 0 0 0 0 1 0 0 0 0.75 0"/>
<feBlend mode="normal" in2="effect2_dropShadow_107_6848" result="effect3_dropShadow_107_6848"/>
<feColorMatrix in="SourceAlpha" type="matrix" values="0 0 0 0 0 0 0 0 0 0 0 0 0 0 0 0 0 0 127 0" result="hardAlpha"/>
<feOffset dx="-8" dy="-8"/>
<feGaussianBlur stdDeviation="6"/>
<feComposite in2="hardAlpha" operator="out"/>
<feColorMatrix type="matrix" values="0 0 0 0 1 0 0 0 0 1 0 0 0 0 1 0 0 0 0.25 0"/>
<feBlend mode="normal" in2="effect3_dropShadow_107_6848" result="effect4_dropShadow_107_6848"/>
<feBlend mode="normal" in="SourceGraphic" in2="effect4_dropShadow_107_6848" result="shape"/>
</filter>
<linearGradient id="paint0_linear_107_6848" x1="28" y1="40.1101" x2="53.125" y2="40.1101" gradientUnits="userSpaceOnUse">
<stop stop-color="#5585FF"/>
<stop offset="0.526042" stop-color="#3364E0" stop-opacity="0.922609"/>
<stop offset="1" stop-color="#5585FF"/>
</linearGradient>
</defs>
</svg>
