<svg width="80" height="80" viewBox="0 0 80 80" fill="none" xmlns="http://www.w3.org/2000/svg">
<g filter="url(#filter0_dddd_107_6841)">
<rect x="20" y="20" width="40" height="40" rx="8" fill="#EBEFF3" shape-rendering="crispEdges"/>
<path d="M40 28C36.7932 28 34.1935 30.4452 34.1935 33.4615C34.1935 36.4778 36.7932 38.923 40 38.923C43.2068 38.923 45.8065 36.4778 45.8065 33.4615C45.8065 30.4452 43.2068 28 40 28Z" fill="url(#paint0_linear_107_6841)"/>
<path d="M33.8065 41.8357C30.5996 41.8357 28 44.2809 28 47.2972V49.0278C28 50.1248 28.8452 51.0602 29.9963 51.2369C36.6216 52.2544 43.3784 52.2544 50.0037 51.2369C51.1548 51.0602 52 50.1248 52 49.0278V47.2972C52 44.2809 49.4004 41.8357 46.1935 41.8357H45.6658C45.3801 41.8357 45.0962 41.8782 44.8247 41.9616L43.4845 42.3732C41.2203 43.0686 38.7797 43.0686 36.5155 42.3732L35.1753 41.9616C34.9038 41.8782 34.6199 41.8357 34.3342 41.8357H33.8065Z" fill="url(#paint1_linear_107_6841)"/>
</g>
<defs>
<filter id="filter0_dddd_107_6841" x="0" y="0" width="80" height="80" filterUnits="userSpaceOnUse" color-interpolation-filters="sRGB">
<feFlood flood-opacity="0" result="BackgroundImageFix"/>
<feColorMatrix in="SourceAlpha" type="matrix" values="0 0 0 0 0 0 0 0 0 0 0 0 0 0 0 0 0 0 127 0" result="hardAlpha"/>
<feOffset dx="4" dy="4"/>
<feGaussianBlur stdDeviation="4"/>
<feComposite in2="hardAlpha" operator="out"/>
<feColorMatrix type="matrix" values="0 0 0 0 0.741176 0 0 0 0 0.761569 0 0 0 0 0.780392 0 0 0 0.75 0"/>
<feBlend mode="normal" in2="BackgroundImageFix" result="effect1_dropShadow_107_6841"/>
<feColorMatrix in="SourceAlpha" type="matrix" values="0 0 0 0 0 0 0 0 0 0 0 0 0 0 0 0 0 0 127 0" result="hardAlpha"/>
<feOffset dx="8" dy="8"/>
<feGaussianBlur stdDeviation="6"/>
<feComposite in2="hardAlpha" operator="out"/>
<feColorMatrix type="matrix" values="0 0 0 0 0.741176 0 0 0 0 0.760784 0 0 0 0 0.780392 0 0 0 0.25 0"/>
<feBlend mode="normal" in2="effect1_dropShadow_107_6841" result="effect2_dropShadow_107_6841"/>
<feColorMatrix in="SourceAlpha" type="matrix" values="0 0 0 0 0 0 0 0 0 0 0 0 0 0 0 0 0 0 127 0" result="hardAlpha"/>
<feOffset dx="-4" dy="-4"/>
<feGaussianBlur stdDeviation="4"/>
<feComposite in2="hardAlpha" operator="out"/>
<feColorMatrix type="matrix" values="0 0 0 0 1 0 0 0 0 1 0 0 0 0 1 0 0 0 0.75 0"/>
<feBlend mode="normal" in2="effect2_dropShadow_107_6841" result="effect3_dropShadow_107_6841"/>
<feColorMatrix in="SourceAlpha" type="matrix" values="0 0 0 0 0 0 0 0 0 0 0 0 0 0 0 0 0 0 127 0" result="hardAlpha"/>
<feOffset dx="-8" dy="-8"/>
<feGaussianBlur stdDeviation="6"/>
<feComposite in2="hardAlpha" operator="out"/>
<feColorMatrix type="matrix" values="0 0 0 0 1 0 0 0 0 1 0 0 0 0 1 0 0 0 0.25 0"/>
<feBlend mode="normal" in2="effect3_dropShadow_107_6841" result="effect4_dropShadow_107_6841"/>
<feBlend mode="normal" in="SourceGraphic" in2="effect4_dropShadow_107_6841" result="shape"/>
</filter>
<linearGradient id="paint0_linear_107_6841" x1="28" y1="40.1101" x2="53.125" y2="40.1101" gradientUnits="userSpaceOnUse">
<stop stop-color="#6AE1B7"/>
<stop offset="0.520833" stop-color="#48D3A2" stop-opacity="0.92"/>
<stop offset="1" stop-color="#6AE1B7"/>
</linearGradient>
<linearGradient id="paint1_linear_107_6841" x1="28" y1="40.1101" x2="53.125" y2="40.1101" gradientUnits="userSpaceOnUse">
<stop stop-color="#6AE1B7"/>
<stop offset="0.520833" stop-color="#48D3A2" stop-opacity="0.92"/>
<stop offset="1" stop-color="#6AE1B7"/>
</linearGradient>
</defs>
</svg>
